<?xml version="1.0" standalone="no"?>
<!DOCTYPE svg PUBLIC "-//W3C//DTD SVG 20010904//EN"
 "http://www.w3.org/TR/2001/REC-SVG-20010904/DTD/svg10.dtd">
<svg version="1.0" xmlns="http://www.w3.org/2000/svg"
 width="512.000000pt" height="512.000000pt" viewBox="0 0 512.000000 512.000000"
 preserveAspectRatio="xMidYMid meet">
<metadata>
Created by potrace 1.14, written by Peter Selinger 2001-2017
</metadata>
<g transform="translate(0.000000,512.000000) scale(0.100000,-0.100000)"
fill="#000000" stroke="none">
<path d="M0 2560 l0 -2560 2560 0 2560 0 0 2560 0 2560 -2560 0 -2560 0 0
-2560z m2740 601 c14 -10 45 -45 70 -79 48 -64 62 -72 165 -92 33 -7 123 -36
201 -66 172 -65 317 -107 579 -169 304 -71 591 -150 786 -215 182 -61 415
-152 432 -169 13 -13 -2 -71 -19 -78 -8 -3 -101 22 -207 55 -532 166 -732 214
-1042 247 -237 25 -436 76 -641 165 -62 27 -152 61 -200 76 -49 14 -95 31
-103 37 -19 16 -29 45 -55 171 -13 61 -28 119 -32 130 -6 16 -4 17 17 11 13
-4 35 -14 49 -24z m-255 2 c-5 -10 -21 -71 -38 -135 -19 -78 -37 -125 -52
-142 -15 -16 -57 -35 -124 -56 -56 -17 -153 -53 -216 -80 -200 -86 -384 -130
-639 -155 -265 -27 -534 -91 -983 -234 -122 -39 -230 -71 -241 -71 -25 0 -48
56 -32 76 6 7 55 30 108 53 279 116 747 256 1192 356 158 35 265 67 472 141
97 35 217 71 268 80 88 16 92 18 119 58 50 71 116 125 155 126 14 0 16 -4 11
-17z m-312 -675 c-2 -73 -6 -142 -8 -153 -4 -17 -60 -55 -80 -55 -3 0 -5 44
-5 98 0 137 34 242 79 242 17 0 18 -8 14 -132z m806 106 c12 -15 26 -45 32
-68 14 -52 30 -239 21 -248 -4 -4 -25 3 -47 15 l-40 23 -6 114 c-3 63 -9 132
-13 153 -7 33 -6 37 12 37 11 0 30 -12 41 -26z m-927 -1 c2 -10 0 -40 -5 -68
-4 -27 -11 -97 -15 -155 l-7 -104 -34 -23 c-19 -13 -38 -23 -44 -23 -12 0 -1
137 20 249 11 57 24 92 40 112 28 33 40 36 45 12z m1054 -28 c14 -26 37 -80
50 -121 24 -80 49 -222 40 -231 -6 -6 -92 42 -101 56 -8 13 -33 164 -41 248
-10 106 8 122 52 48z m99 27 c40 -28 200 -344 212 -418 l6 -35 -39 16 c-80 33
-106 64 -156 186 -50 123 -69 203 -57 237 9 23 17 27 34 14z m-1285 -16 c0
-13 -16 -39 -82 -131 -23 -32 -47 -87 -68 -155 -18 -58 -37 -110 -44 -117 -6
-7 -28 -19 -50 -28 l-38 -16 7 48 c18 124 87 256 188 361 49 50 87 67 87 38z
m-150 -47 c0 -36 -10 -57 -61 -124 -21 -27 -64 -101 -96 -164 -56 -110 -60
-116 -115 -145 -31 -17 -60 -28 -64 -24 -18 19 154 310 264 446 42 51 72 56
72 11z m1652 -74 c91 -131 213 -332 221 -362 6 -27 -3 -29 -46 -7 -74 38 -115
83 -174 192 -84 156 -96 182 -101 235 -7 75 18 61 100 -58z m-1495 -38 c-14
-62 -29 -132 -34 -156 -8 -46 -32 -68 -90 -86 -22 -6 -22 -5 -9 32 7 21 23 81
35 133 12 52 29 105 37 117 28 45 78 95 82 84 2 -7 -7 -63 -21 -124z m-297
108 c0 -23 -28 -74 -65 -120 -18 -22 -71 -100 -120 -173 -92 -141 -140 -186
-189 -180 l-27 3 39 80 c44 91 235 333 298 378 44 30 64 34 64 12z m2012 -145
c116 -144 208 -283 208 -314 0 -20 -1 -20 -61 5 -46 20 -62 38 -185 201 -130
173 -144 201 -128 243 15 37 50 8 166 -135z m-2356 94 c31 -46 16 -53 -491
-224 -393 -132 -382 -130 -395 -95 -5 14 -10 30 -10 36 0 53 691 307 842 309
30 0 41 -6 54 -26z m2699 12 c171 -39 443 -137 631 -226 66 -31 123 -63 126
-71 10 -25 -10 -59 -34 -59 -41 0 -856 277 -884 301 -18 15 -18 28 3 51 20 22
72 23 158 4z m-2533 -48 c-11 -16 -58 -78 -105 -136 -48 -59 -114 -142 -147
-184 -57 -74 -94 -99 -119 -83 -25 15 -9 64 43 139 106 152 225 268 301 293
42 14 49 6 27 -29z m2285 -6 c124 -99 308 -329 301 -376 -4 -28 -42 -33 -72
-9 -21 17 -109 116 -254 286 -53 62 -74 101 -66 121 10 26 39 18 91 -22z
m-2587 -110 c0 -21 -62 -102 -110 -144 -59 -52 -246 -158 -278 -158 -26 0 -38
35 -23 64 20 37 152 127 275 187 120 60 136 66 136 51z m2937 -44 c99 -52 268
-163 292 -192 17 -21 10 -60 -12 -64 -10 -2 -78 26 -151 62 -114 56 -142 75
-190 127 -42 45 -56 68 -56 90 0 16 4 29 10 29 5 0 53 -23 107 -52z m-1698
-92 l48 -75 -21 -60 c-11 -33 -24 -57 -27 -53 -9 9 -55 157 -64 204 -6 33 -2
58 11 58 2 0 26 -33 53 -74z m411 40 c0 -25 -48 -165 -73 -213 l-14 -26 -18
55 c-19 63 -18 67 47 156 42 57 58 65 58 28z m-236 -124 c12 -20 25 -143 20
-185 -8 -53 -19 -54 -28 -2 -7 38 -26 39 -26 2 0 -25 -16 -54 -25 -46 -8 9 13
184 27 214 11 26 23 32 32 17z m1083 -699 c3 -7 -7 -17 -22 -23 -37 -14 -2109
-14 -2136 0 -10 6 -19 17 -19 25 0 13 144 14 1087 12 856 -2 1087 -5 1090 -14z"/>
</g>
</svg>
